<mxfile host="app.diagrams.net" agent="Mozilla/5.0 (Windows NT 10.0; Win64; x64) AppleWebKit/537.36 (KHTML, like Gecko) Chrome/134.0.0.0 Safari/537.36" version="26.1.1">
  <diagram name="PÃ¡gina-1" id="xbwrXMMhkF2KKc7NPwiM">
    <mxGraphModel dx="1728" dy="2112" grid="1" gridSize="10" guides="1" tooltips="1" connect="1" arrows="1" fold="1" page="1" pageScale="1" pageWidth="827" pageHeight="1169" math="0" shadow="0">
      <root>
        <mxCell id="0" />
        <mxCell id="1" parent="0" />
        <mxCell id="pg4sQeBWtISn-FDDQOaa-1" value="Langilea" style="shape=umlActor;verticalLabelPosition=bottom;verticalAlign=top;html=1;outlineConnect=0;" vertex="1" parent="1">
          <mxGeometry x="120" y="555" width="30" height="60" as="geometry" />
        </mxCell>
        <mxCell id="pg4sQeBWtISn-FDDQOaa-6" value="Erabiltzaileak ikusi" style="ellipse;whiteSpace=wrap;html=1;" vertex="1" parent="1">
          <mxGeometry x="340" y="-280" width="120" height="80" as="geometry" />
        </mxCell>
        <mxCell id="pg4sQeBWtISn-FDDQOaa-8" value="Bazkideak ikusi" style="ellipse;whiteSpace=wrap;html=1;" vertex="1" parent="1">
          <mxGeometry x="340" y="-40" width="120" height="80" as="geometry" />
        </mxCell>
        <mxCell id="pg4sQeBWtISn-FDDQOaa-9" value="Kluba ikusi" style="ellipse;whiteSpace=wrap;html=1;" vertex="1" parent="1">
          <mxGeometry x="330" y="310" width="120" height="80" as="geometry" />
        </mxCell>
        <mxCell id="pg4sQeBWtISn-FDDQOaa-10" value="Langilea ikusi" style="ellipse;whiteSpace=wrap;html=1;" vertex="1" parent="1">
          <mxGeometry x="330" y="720" width="120" height="80" as="geometry" />
        </mxCell>
        <mxCell id="pg4sQeBWtISn-FDDQOaa-11" value="Hornitzailea ikusi" style="ellipse;whiteSpace=wrap;html=1;" vertex="1" parent="1">
          <mxGeometry x="330" y="1130" width="120" height="80" as="geometry" />
        </mxCell>
        <mxCell id="pg4sQeBWtISn-FDDQOaa-12" value="Mantenua ikusi" style="ellipse;whiteSpace=wrap;html=1;" vertex="1" parent="1">
          <mxGeometry x="320" y="1470" width="120" height="80" as="geometry" />
        </mxCell>
        <mxCell id="pg4sQeBWtISn-FDDQOaa-13" value="Objetuak ikusi" style="ellipse;whiteSpace=wrap;html=1;" vertex="1" parent="1">
          <mxGeometry x="320" y="1790" width="120" height="80" as="geometry" />
        </mxCell>
        <mxCell id="pg4sQeBWtISn-FDDQOaa-14" value="Sarrerak kudeatu" style="ellipse;whiteSpace=wrap;html=1;" vertex="1" parent="1">
          <mxGeometry x="320" y="2080" width="120" height="80" as="geometry" />
        </mxCell>
        <mxCell id="pg4sQeBWtISn-FDDQOaa-21" value="" style="endArrow=none;html=1;rounded=0;" edge="1" parent="1">
          <mxGeometry width="50" height="50" relative="1" as="geometry">
            <mxPoint x="160" y="590" as="sourcePoint" />
            <mxPoint x="230" y="590" as="targetPoint" />
          </mxGeometry>
        </mxCell>
        <mxCell id="pg4sQeBWtISn-FDDQOaa-22" value="" style="endArrow=none;html=1;rounded=0;" edge="1" parent="1">
          <mxGeometry width="50" height="50" relative="1" as="geometry">
            <mxPoint x="230" y="590" as="sourcePoint" />
            <mxPoint x="230" y="-240" as="targetPoint" />
          </mxGeometry>
        </mxCell>
        <mxCell id="pg4sQeBWtISn-FDDQOaa-23" value="" style="endArrow=none;html=1;rounded=0;" edge="1" parent="1">
          <mxGeometry width="50" height="50" relative="1" as="geometry">
            <mxPoint x="230" y="2120" as="sourcePoint" />
            <mxPoint x="230" y="590" as="targetPoint" />
          </mxGeometry>
        </mxCell>
        <mxCell id="pg4sQeBWtISn-FDDQOaa-24" value="" style="endArrow=none;html=1;rounded=0;entryX=0;entryY=0.5;entryDx=0;entryDy=0;" edge="1" parent="1" target="pg4sQeBWtISn-FDDQOaa-14">
          <mxGeometry width="50" height="50" relative="1" as="geometry">
            <mxPoint x="230" y="2120" as="sourcePoint" />
            <mxPoint x="300" y="2120" as="targetPoint" />
          </mxGeometry>
        </mxCell>
        <mxCell id="pg4sQeBWtISn-FDDQOaa-25" value="" style="endArrow=none;html=1;rounded=0;entryX=0;entryY=0.613;entryDx=0;entryDy=0;entryPerimeter=0;" edge="1" parent="1" target="pg4sQeBWtISn-FDDQOaa-13">
          <mxGeometry width="50" height="50" relative="1" as="geometry">
            <mxPoint x="230" y="1840" as="sourcePoint" />
            <mxPoint x="300" y="910" as="targetPoint" />
          </mxGeometry>
        </mxCell>
        <mxCell id="pg4sQeBWtISn-FDDQOaa-26" value="" style="endArrow=none;html=1;rounded=0;entryX=0;entryY=0.5;entryDx=0;entryDy=0;" edge="1" parent="1" target="pg4sQeBWtISn-FDDQOaa-12">
          <mxGeometry width="50" height="50" relative="1" as="geometry">
            <mxPoint x="230" y="1510" as="sourcePoint" />
            <mxPoint x="320" y="830" as="targetPoint" />
          </mxGeometry>
        </mxCell>
        <mxCell id="pg4sQeBWtISn-FDDQOaa-27" value="" style="endArrow=none;html=1;rounded=0;entryX=0;entryY=0.5;entryDx=0;entryDy=0;" edge="1" parent="1" target="pg4sQeBWtISn-FDDQOaa-11">
          <mxGeometry width="50" height="50" relative="1" as="geometry">
            <mxPoint x="230" y="1170" as="sourcePoint" />
            <mxPoint x="300" y="720" as="targetPoint" />
          </mxGeometry>
        </mxCell>
        <mxCell id="pg4sQeBWtISn-FDDQOaa-28" value="" style="endArrow=none;html=1;rounded=0;entryX=0;entryY=0.5;entryDx=0;entryDy=0;" edge="1" parent="1" target="pg4sQeBWtISn-FDDQOaa-10">
          <mxGeometry width="50" height="50" relative="1" as="geometry">
            <mxPoint x="230" y="760" as="sourcePoint" />
            <mxPoint x="290" y="590" as="targetPoint" />
          </mxGeometry>
        </mxCell>
        <mxCell id="pg4sQeBWtISn-FDDQOaa-29" value="" style="endArrow=none;html=1;rounded=0;entryX=0;entryY=0.5;entryDx=0;entryDy=0;" edge="1" parent="1" target="pg4sQeBWtISn-FDDQOaa-9">
          <mxGeometry width="50" height="50" relative="1" as="geometry">
            <mxPoint x="230" y="350" as="sourcePoint" />
            <mxPoint x="300" y="450" as="targetPoint" />
          </mxGeometry>
        </mxCell>
        <mxCell id="pg4sQeBWtISn-FDDQOaa-30" value="" style="endArrow=none;html=1;rounded=0;entryX=0;entryY=0.5;entryDx=0;entryDy=0;" edge="1" parent="1" target="pg4sQeBWtISn-FDDQOaa-8">
          <mxGeometry width="50" height="50" relative="1" as="geometry">
            <mxPoint x="230" as="sourcePoint" />
            <mxPoint x="270" y="310" as="targetPoint" />
          </mxGeometry>
        </mxCell>
        <mxCell id="pg4sQeBWtISn-FDDQOaa-31" value="" style="endArrow=none;html=1;rounded=0;entryX=0;entryY=0.5;entryDx=0;entryDy=0;" edge="1" parent="1" target="pg4sQeBWtISn-FDDQOaa-6">
          <mxGeometry width="50" height="50" relative="1" as="geometry">
            <mxPoint x="230" y="-240" as="sourcePoint" />
            <mxPoint x="280" y="170" as="targetPoint" />
          </mxGeometry>
        </mxCell>
        <mxCell id="pg4sQeBWtISn-FDDQOaa-32" value="" style="endArrow=none;dashed=1;html=1;rounded=0;exitX=1;exitY=0.5;exitDx=0;exitDy=0;entryX=0;entryY=0.5;entryDx=0;entryDy=0;startArrow=block;startFill=1;" edge="1" parent="1" source="pg4sQeBWtISn-FDDQOaa-14" target="pg4sQeBWtISn-FDDQOaa-90">
          <mxGeometry width="50" height="50" relative="1" as="geometry">
            <mxPoint x="500" y="1060" as="sourcePoint" />
            <mxPoint x="560" y="2040" as="targetPoint" />
          </mxGeometry>
        </mxCell>
        <mxCell id="pg4sQeBWtISn-FDDQOaa-103" value="&amp;lt;&amp;lt;extend&amp;gt;&amp;gt;" style="edgeLabel;html=1;align=center;verticalAlign=middle;resizable=0;points=[];" vertex="1" connectable="0" parent="pg4sQeBWtISn-FDDQOaa-32">
          <mxGeometry x="-0.031" y="3" relative="1" as="geometry">
            <mxPoint as="offset" />
          </mxGeometry>
        </mxCell>
        <mxCell id="pg4sQeBWtISn-FDDQOaa-33" value="" style="endArrow=none;dashed=1;html=1;rounded=0;exitX=1;exitY=0;exitDx=0;exitDy=0;entryX=0.092;entryY=0.813;entryDx=0;entryDy=0;entryPerimeter=0;startArrow=block;startFill=1;" edge="1" parent="1" source="pg4sQeBWtISn-FDDQOaa-6" target="pg4sQeBWtISn-FDDQOaa-40">
          <mxGeometry width="50" height="50" relative="1" as="geometry">
            <mxPoint x="510" y="240" as="sourcePoint" />
            <mxPoint x="570" y="200" as="targetPoint" />
          </mxGeometry>
        </mxCell>
        <mxCell id="pg4sQeBWtISn-FDDQOaa-57" value="&amp;lt;&amp;lt;extend&amp;gt;&amp;gt;" style="edgeLabel;html=1;align=center;verticalAlign=middle;resizable=0;points=[];" vertex="1" connectable="0" parent="pg4sQeBWtISn-FDDQOaa-33">
          <mxGeometry x="0.0435" y="1" relative="1" as="geometry">
            <mxPoint as="offset" />
          </mxGeometry>
        </mxCell>
        <mxCell id="pg4sQeBWtISn-FDDQOaa-34" value="" style="endArrow=none;dashed=1;html=1;rounded=0;exitX=1;exitY=0.5;exitDx=0;exitDy=0;entryX=0;entryY=0.638;entryDx=0;entryDy=0;entryPerimeter=0;startArrow=block;startFill=1;" edge="1" parent="1" source="pg4sQeBWtISn-FDDQOaa-8" target="pg4sQeBWtISn-FDDQOaa-46">
          <mxGeometry width="50" height="50" relative="1" as="geometry">
            <mxPoint x="480" y="340" as="sourcePoint" />
            <mxPoint x="570" y="330" as="targetPoint" />
          </mxGeometry>
        </mxCell>
        <mxCell id="pg4sQeBWtISn-FDDQOaa-61" value="&amp;lt;&amp;lt;extend&amp;gt;&amp;gt;" style="edgeLabel;html=1;align=center;verticalAlign=middle;resizable=0;points=[];" vertex="1" connectable="0" parent="pg4sQeBWtISn-FDDQOaa-34">
          <mxGeometry x="0.1277" y="2" relative="1" as="geometry">
            <mxPoint as="offset" />
          </mxGeometry>
        </mxCell>
        <mxCell id="pg4sQeBWtISn-FDDQOaa-35" value="" style="endArrow=none;dashed=1;html=1;rounded=0;exitX=1;exitY=0.5;exitDx=0;exitDy=0;entryX=0;entryY=0.5;entryDx=0;entryDy=0;startArrow=block;startFill=1;" edge="1" parent="1" source="pg4sQeBWtISn-FDDQOaa-9" target="pg4sQeBWtISn-FDDQOaa-52">
          <mxGeometry width="50" height="50" relative="1" as="geometry">
            <mxPoint x="500" y="520" as="sourcePoint" />
            <mxPoint x="570" y="480" as="targetPoint" />
          </mxGeometry>
        </mxCell>
        <mxCell id="pg4sQeBWtISn-FDDQOaa-64" value="&amp;lt;&amp;lt;extend&amp;gt;&amp;gt;" style="edgeLabel;html=1;align=center;verticalAlign=middle;resizable=0;points=[];" vertex="1" connectable="0" parent="pg4sQeBWtISn-FDDQOaa-35">
          <mxGeometry x="0.0055" y="-1" relative="1" as="geometry">
            <mxPoint as="offset" />
          </mxGeometry>
        </mxCell>
        <mxCell id="pg4sQeBWtISn-FDDQOaa-36" value="" style="endArrow=none;dashed=1;html=1;rounded=0;exitX=1;exitY=0.5;exitDx=0;exitDy=0;entryX=0.033;entryY=0.588;entryDx=0;entryDy=0;entryPerimeter=0;startArrow=block;startFill=1;" edge="1" parent="1" source="pg4sQeBWtISn-FDDQOaa-10" target="pg4sQeBWtISn-FDDQOaa-70">
          <mxGeometry width="50" height="50" relative="1" as="geometry">
            <mxPoint x="550" y="620" as="sourcePoint" />
            <mxPoint x="560" y="660" as="targetPoint" />
          </mxGeometry>
        </mxCell>
        <mxCell id="pg4sQeBWtISn-FDDQOaa-91" value="&amp;lt;&amp;lt;extend&amp;gt;&amp;gt;" style="edgeLabel;html=1;align=center;verticalAlign=middle;resizable=0;points=[];" vertex="1" connectable="0" parent="pg4sQeBWtISn-FDDQOaa-36">
          <mxGeometry x="0.0442" y="-1" relative="1" as="geometry">
            <mxPoint as="offset" />
          </mxGeometry>
        </mxCell>
        <mxCell id="pg4sQeBWtISn-FDDQOaa-37" value="" style="endArrow=none;dashed=1;html=1;rounded=0;exitX=1;exitY=0.5;exitDx=0;exitDy=0;entryX=0;entryY=0.675;entryDx=0;entryDy=0;entryPerimeter=0;startArrow=block;startFill=1;" edge="1" parent="1" source="pg4sQeBWtISn-FDDQOaa-11" target="pg4sQeBWtISn-FDDQOaa-75">
          <mxGeometry width="50" height="50" relative="1" as="geometry">
            <mxPoint x="510" y="760" as="sourcePoint" />
            <mxPoint x="550" y="1030" as="targetPoint" />
          </mxGeometry>
        </mxCell>
        <mxCell id="pg4sQeBWtISn-FDDQOaa-94" value="&amp;lt;&amp;lt;extend&amp;gt;&amp;gt;" style="edgeLabel;html=1;align=center;verticalAlign=middle;resizable=0;points=[];" vertex="1" connectable="0" parent="pg4sQeBWtISn-FDDQOaa-37">
          <mxGeometry x="0.0377" y="1" relative="1" as="geometry">
            <mxPoint as="offset" />
          </mxGeometry>
        </mxCell>
        <mxCell id="pg4sQeBWtISn-FDDQOaa-38" value="" style="endArrow=none;dashed=1;html=1;rounded=0;exitX=0.925;exitY=0.188;exitDx=0;exitDy=0;entryX=0;entryY=0.5;entryDx=0;entryDy=0;exitPerimeter=0;startArrow=block;startFill=1;" edge="1" parent="1" source="pg4sQeBWtISn-FDDQOaa-12" target="pg4sQeBWtISn-FDDQOaa-80">
          <mxGeometry width="50" height="50" relative="1" as="geometry">
            <mxPoint x="520" y="850" as="sourcePoint" />
            <mxPoint x="540" y="1440" as="targetPoint" />
          </mxGeometry>
        </mxCell>
        <mxCell id="pg4sQeBWtISn-FDDQOaa-97" value="&amp;lt;&amp;lt;extend&amp;gt;&amp;gt;" style="edgeLabel;html=1;align=center;verticalAlign=middle;resizable=0;points=[];" vertex="1" connectable="0" parent="pg4sQeBWtISn-FDDQOaa-38">
          <mxGeometry x="0.0487" y="-2" relative="1" as="geometry">
            <mxPoint as="offset" />
          </mxGeometry>
        </mxCell>
        <mxCell id="pg4sQeBWtISn-FDDQOaa-39" value="" style="endArrow=none;dashed=1;html=1;rounded=0;exitX=1;exitY=0.5;exitDx=0;exitDy=0;entryX=0.003;entryY=0.579;entryDx=0;entryDy=0;entryPerimeter=0;startArrow=block;startFill=1;" edge="1" parent="1" source="pg4sQeBWtISn-FDDQOaa-13" target="pg4sQeBWtISn-FDDQOaa-85">
          <mxGeometry width="50" height="50" relative="1" as="geometry">
            <mxPoint x="500" y="990" as="sourcePoint" />
            <mxPoint x="520" y="1730" as="targetPoint" />
          </mxGeometry>
        </mxCell>
        <mxCell id="pg4sQeBWtISn-FDDQOaa-100" value="&amp;lt;&amp;lt;extend&amp;gt;&amp;gt;" style="edgeLabel;html=1;align=center;verticalAlign=middle;resizable=0;points=[];" vertex="1" connectable="0" parent="pg4sQeBWtISn-FDDQOaa-39">
          <mxGeometry x="0.0346" relative="1" as="geometry">
            <mxPoint as="offset" />
          </mxGeometry>
        </mxCell>
        <mxCell id="pg4sQeBWtISn-FDDQOaa-40" value="Erabiltzailea gehitu" style="ellipse;whiteSpace=wrap;html=1;" vertex="1" parent="1">
          <mxGeometry x="580" y="-480" width="120" height="80" as="geometry" />
        </mxCell>
        <mxCell id="pg4sQeBWtISn-FDDQOaa-41" value="Erabiltzailea ezabatu" style="ellipse;whiteSpace=wrap;html=1;" vertex="1" parent="1">
          <mxGeometry x="580" y="-330" width="120" height="80" as="geometry" />
        </mxCell>
        <mxCell id="pg4sQeBWtISn-FDDQOaa-42" value="Erabiltzailea editatu" style="ellipse;whiteSpace=wrap;html=1;" vertex="1" parent="1">
          <mxGeometry x="580" y="-200" width="120" height="80" as="geometry" />
        </mxCell>
        <mxCell id="pg4sQeBWtISn-FDDQOaa-43" value="" style="endArrow=none;dashed=1;html=1;rounded=0;exitX=1;exitY=0.5;exitDx=0;exitDy=0;entryX=0.042;entryY=0.7;entryDx=0;entryDy=0;entryPerimeter=0;startArrow=block;startFill=1;" edge="1" parent="1" source="pg4sQeBWtISn-FDDQOaa-6" target="pg4sQeBWtISn-FDDQOaa-41">
          <mxGeometry width="50" height="50" relative="1" as="geometry">
            <mxPoint x="520" y="160" as="sourcePoint" />
            <mxPoint x="570" y="110" as="targetPoint" />
          </mxGeometry>
        </mxCell>
        <mxCell id="pg4sQeBWtISn-FDDQOaa-59" value="&amp;lt;&amp;lt;extend&amp;gt;&amp;gt;" style="edgeLabel;html=1;align=center;verticalAlign=middle;resizable=0;points=[];" vertex="1" connectable="0" parent="pg4sQeBWtISn-FDDQOaa-43">
          <mxGeometry x="0.1236" y="1" relative="1" as="geometry">
            <mxPoint as="offset" />
          </mxGeometry>
        </mxCell>
        <mxCell id="pg4sQeBWtISn-FDDQOaa-45" value="" style="endArrow=none;dashed=1;html=1;rounded=0;exitX=0.95;exitY=0.75;exitDx=0;exitDy=0;exitPerimeter=0;entryX=-0.017;entryY=0.638;entryDx=0;entryDy=0;entryPerimeter=0;startArrow=block;startFill=1;" edge="1" parent="1" source="pg4sQeBWtISn-FDDQOaa-6" target="pg4sQeBWtISn-FDDQOaa-42">
          <mxGeometry width="50" height="50" relative="1" as="geometry">
            <mxPoint x="530" y="240" as="sourcePoint" />
            <mxPoint x="580" y="190" as="targetPoint" />
          </mxGeometry>
        </mxCell>
        <mxCell id="pg4sQeBWtISn-FDDQOaa-60" value="&amp;lt;&amp;lt;extend&amp;gt;&amp;gt;" style="edgeLabel;html=1;align=center;verticalAlign=middle;resizable=0;points=[];" vertex="1" connectable="0" parent="pg4sQeBWtISn-FDDQOaa-45">
          <mxGeometry x="0.139" y="3" relative="1" as="geometry">
            <mxPoint as="offset" />
          </mxGeometry>
        </mxCell>
        <mxCell id="pg4sQeBWtISn-FDDQOaa-46" value="Bazkidea gehitu" style="ellipse;whiteSpace=wrap;html=1;" vertex="1" parent="1">
          <mxGeometry x="580" y="-90" width="120" height="80" as="geometry" />
        </mxCell>
        <mxCell id="pg4sQeBWtISn-FDDQOaa-47" value="Bazkidea ezabatu" style="ellipse;whiteSpace=wrap;html=1;" vertex="1" parent="1">
          <mxGeometry x="580" y="20" width="120" height="80" as="geometry" />
        </mxCell>
        <mxCell id="pg4sQeBWtISn-FDDQOaa-48" value="Bazkidea editatu" style="ellipse;whiteSpace=wrap;html=1;" vertex="1" parent="1">
          <mxGeometry x="580" y="130" width="120" height="80" as="geometry" />
        </mxCell>
        <mxCell id="pg4sQeBWtISn-FDDQOaa-50" value="" style="endArrow=none;dashed=1;html=1;rounded=0;entryX=0;entryY=0.5;entryDx=0;entryDy=0;exitX=1;exitY=0.725;exitDx=0;exitDy=0;exitPerimeter=0;startArrow=block;startFill=1;" edge="1" parent="1" source="pg4sQeBWtISn-FDDQOaa-8" target="pg4sQeBWtISn-FDDQOaa-47">
          <mxGeometry width="50" height="50" relative="1" as="geometry">
            <mxPoint x="480" y="110" as="sourcePoint" />
            <mxPoint x="530" y="60" as="targetPoint" />
          </mxGeometry>
        </mxCell>
        <mxCell id="pg4sQeBWtISn-FDDQOaa-62" value="&amp;lt;&amp;lt;extend&amp;gt;&amp;gt;" style="edgeLabel;html=1;align=center;verticalAlign=middle;resizable=0;points=[];" vertex="1" connectable="0" parent="pg4sQeBWtISn-FDDQOaa-50">
          <mxGeometry x="0.1203" y="-4" relative="1" as="geometry">
            <mxPoint as="offset" />
          </mxGeometry>
        </mxCell>
        <mxCell id="pg4sQeBWtISn-FDDQOaa-51" value="" style="endArrow=none;dashed=1;html=1;rounded=0;entryX=0;entryY=0.5;entryDx=0;entryDy=0;startArrow=block;startFill=1;" edge="1" parent="1" source="pg4sQeBWtISn-FDDQOaa-8" target="pg4sQeBWtISn-FDDQOaa-48">
          <mxGeometry width="50" height="50" relative="1" as="geometry">
            <mxPoint x="480" y="170" as="sourcePoint" />
            <mxPoint x="530" y="120" as="targetPoint" />
          </mxGeometry>
        </mxCell>
        <mxCell id="pg4sQeBWtISn-FDDQOaa-63" value="&amp;lt;&amp;lt;extend&amp;gt;&amp;gt;" style="edgeLabel;html=1;align=center;verticalAlign=middle;resizable=0;points=[];" vertex="1" connectable="0" parent="pg4sQeBWtISn-FDDQOaa-51">
          <mxGeometry x="0.0458" relative="1" as="geometry">
            <mxPoint as="offset" />
          </mxGeometry>
        </mxCell>
        <mxCell id="pg4sQeBWtISn-FDDQOaa-52" value="Kluba editatu" style="ellipse;whiteSpace=wrap;html=1;" vertex="1" parent="1">
          <mxGeometry x="580" y="250" width="120" height="80" as="geometry" />
        </mxCell>
        <mxCell id="pg4sQeBWtISn-FDDQOaa-53" value="Kluba gehitu" style="ellipse;whiteSpace=wrap;html=1;" vertex="1" parent="1">
          <mxGeometry x="580" y="350" width="120" height="80" as="geometry" />
        </mxCell>
        <mxCell id="pg4sQeBWtISn-FDDQOaa-54" value="Kluba ezabatu" style="ellipse;whiteSpace=wrap;html=1;" vertex="1" parent="1">
          <mxGeometry x="580" y="460" width="120" height="80" as="geometry" />
        </mxCell>
        <mxCell id="pg4sQeBWtISn-FDDQOaa-55" value="" style="endArrow=none;dashed=1;html=1;rounded=0;entryX=0;entryY=0.5;entryDx=0;entryDy=0;startArrow=block;startFill=1;" edge="1" parent="1" source="pg4sQeBWtISn-FDDQOaa-9" target="pg4sQeBWtISn-FDDQOaa-53">
          <mxGeometry width="50" height="50" relative="1" as="geometry">
            <mxPoint x="510" y="440" as="sourcePoint" />
            <mxPoint x="560" y="390" as="targetPoint" />
          </mxGeometry>
        </mxCell>
        <mxCell id="pg4sQeBWtISn-FDDQOaa-65" value="&amp;lt;&amp;lt;extend&amp;gt;&amp;gt;" style="edgeLabel;html=1;align=center;verticalAlign=middle;resizable=0;points=[];" vertex="1" connectable="0" parent="pg4sQeBWtISn-FDDQOaa-55">
          <mxGeometry x="0.1126" relative="1" as="geometry">
            <mxPoint y="1" as="offset" />
          </mxGeometry>
        </mxCell>
        <mxCell id="pg4sQeBWtISn-FDDQOaa-56" value="" style="endArrow=none;dashed=1;html=1;rounded=0;entryX=0;entryY=0.5;entryDx=0;entryDy=0;startArrow=block;startFill=1;" edge="1" parent="1" source="pg4sQeBWtISn-FDDQOaa-9" target="pg4sQeBWtISn-FDDQOaa-54">
          <mxGeometry width="50" height="50" relative="1" as="geometry">
            <mxPoint x="490" y="540" as="sourcePoint" />
            <mxPoint x="540" y="490" as="targetPoint" />
          </mxGeometry>
        </mxCell>
        <mxCell id="pg4sQeBWtISn-FDDQOaa-66" value="&amp;lt;&amp;lt;extend&amp;gt;&amp;gt;" style="edgeLabel;html=1;align=center;verticalAlign=middle;resizable=0;points=[];" vertex="1" connectable="0" parent="pg4sQeBWtISn-FDDQOaa-56">
          <mxGeometry x="0.0197" y="2" relative="1" as="geometry">
            <mxPoint as="offset" />
          </mxGeometry>
        </mxCell>
        <mxCell id="pg4sQeBWtISn-FDDQOaa-70" value="Langilea editatu" style="ellipse;whiteSpace=wrap;html=1;" vertex="1" parent="1">
          <mxGeometry x="580" y="610" width="120" height="80" as="geometry" />
        </mxCell>
        <mxCell id="pg4sQeBWtISn-FDDQOaa-71" value="Langilea gehitu" style="ellipse;whiteSpace=wrap;html=1;" vertex="1" parent="1">
          <mxGeometry x="580" y="730" width="120" height="80" as="geometry" />
        </mxCell>
        <mxCell id="pg4sQeBWtISn-FDDQOaa-72" value="" style="endArrow=none;dashed=1;html=1;rounded=0;entryX=0;entryY=0.5;entryDx=0;entryDy=0;exitX=0.982;exitY=0.61;exitDx=0;exitDy=0;startArrow=block;startFill=1;exitPerimeter=0;" edge="1" parent="1" source="pg4sQeBWtISn-FDDQOaa-10" target="pg4sQeBWtISn-FDDQOaa-71">
          <mxGeometry width="50" height="50" relative="1" as="geometry">
            <mxPoint x="430" y="820" as="sourcePoint" />
            <mxPoint x="480" y="770" as="targetPoint" />
          </mxGeometry>
        </mxCell>
        <mxCell id="pg4sQeBWtISn-FDDQOaa-92" value="&amp;lt;&amp;lt;extend&amp;gt;&amp;gt;" style="edgeLabel;html=1;align=center;verticalAlign=middle;resizable=0;points=[];" vertex="1" connectable="0" parent="pg4sQeBWtISn-FDDQOaa-72">
          <mxGeometry x="0.1146" y="-1" relative="1" as="geometry">
            <mxPoint as="offset" />
          </mxGeometry>
        </mxCell>
        <mxCell id="pg4sQeBWtISn-FDDQOaa-73" value="Langilea ezabatu" style="ellipse;whiteSpace=wrap;html=1;" vertex="1" parent="1">
          <mxGeometry x="580" y="850" width="120" height="80" as="geometry" />
        </mxCell>
        <mxCell id="pg4sQeBWtISn-FDDQOaa-74" value="" style="endArrow=none;dashed=1;html=1;rounded=0;entryX=0;entryY=0.5;entryDx=0;entryDy=0;exitX=0.933;exitY=0.75;exitDx=0;exitDy=0;exitPerimeter=0;startArrow=block;startFill=1;" edge="1" parent="1" source="pg4sQeBWtISn-FDDQOaa-10" target="pg4sQeBWtISn-FDDQOaa-73">
          <mxGeometry width="50" height="50" relative="1" as="geometry">
            <mxPoint x="440" y="950" as="sourcePoint" />
            <mxPoint x="490" y="900" as="targetPoint" />
          </mxGeometry>
        </mxCell>
        <mxCell id="pg4sQeBWtISn-FDDQOaa-93" value="&amp;lt;&amp;lt;extend&amp;gt;&amp;gt;" style="edgeLabel;html=1;align=center;verticalAlign=middle;resizable=0;points=[];" vertex="1" connectable="0" parent="pg4sQeBWtISn-FDDQOaa-74">
          <mxGeometry x="0.0059" relative="1" as="geometry">
            <mxPoint as="offset" />
          </mxGeometry>
        </mxCell>
        <mxCell id="pg4sQeBWtISn-FDDQOaa-75" value="Hornitzailea editatu" style="ellipse;whiteSpace=wrap;html=1;" vertex="1" parent="1">
          <mxGeometry x="580" y="990" width="120" height="80" as="geometry" />
        </mxCell>
        <mxCell id="pg4sQeBWtISn-FDDQOaa-76" value="Hornitzailea gehitu" style="ellipse;whiteSpace=wrap;html=1;" vertex="1" parent="1">
          <mxGeometry x="580" y="1130" width="120" height="80" as="geometry" />
        </mxCell>
        <mxCell id="pg4sQeBWtISn-FDDQOaa-77" value="" style="endArrow=none;dashed=1;html=1;rounded=0;entryX=0;entryY=0.625;entryDx=0;entryDy=0;entryPerimeter=0;exitX=1.008;exitY=0.6;exitDx=0;exitDy=0;exitPerimeter=0;startArrow=block;startFill=1;" edge="1" parent="1" source="pg4sQeBWtISn-FDDQOaa-11" target="pg4sQeBWtISn-FDDQOaa-76">
          <mxGeometry width="50" height="50" relative="1" as="geometry">
            <mxPoint x="480" y="1210" as="sourcePoint" />
            <mxPoint x="530" y="1160" as="targetPoint" />
          </mxGeometry>
        </mxCell>
        <mxCell id="pg4sQeBWtISn-FDDQOaa-95" value="&amp;lt;&amp;lt;extend&amp;gt;&amp;gt;" style="edgeLabel;html=1;align=center;verticalAlign=middle;resizable=0;points=[];" vertex="1" connectable="0" parent="pg4sQeBWtISn-FDDQOaa-77">
          <mxGeometry x="0.0281" y="-1" relative="1" as="geometry">
            <mxPoint as="offset" />
          </mxGeometry>
        </mxCell>
        <mxCell id="pg4sQeBWtISn-FDDQOaa-78" value="" style="endArrow=none;dashed=1;html=1;rounded=0;exitX=1;exitY=1;exitDx=0;exitDy=0;entryX=0;entryY=0.5;entryDx=0;entryDy=0;startArrow=block;startFill=1;" edge="1" parent="1" source="pg4sQeBWtISn-FDDQOaa-11" target="pg4sQeBWtISn-FDDQOaa-79">
          <mxGeometry width="50" height="50" relative="1" as="geometry">
            <mxPoint x="500" y="1260" as="sourcePoint" />
            <mxPoint x="550" y="1260" as="targetPoint" />
          </mxGeometry>
        </mxCell>
        <mxCell id="pg4sQeBWtISn-FDDQOaa-96" value="&amp;lt;&amp;lt;extend&amp;gt;&amp;gt;" style="edgeLabel;html=1;align=center;verticalAlign=middle;resizable=0;points=[];" vertex="1" connectable="0" parent="pg4sQeBWtISn-FDDQOaa-78">
          <mxGeometry x="0.0403" y="1" relative="1" as="geometry">
            <mxPoint as="offset" />
          </mxGeometry>
        </mxCell>
        <mxCell id="pg4sQeBWtISn-FDDQOaa-79" value="Hornitzailea ezabatu" style="ellipse;whiteSpace=wrap;html=1;" vertex="1" parent="1">
          <mxGeometry x="580" y="1240" width="120" height="80" as="geometry" />
        </mxCell>
        <mxCell id="pg4sQeBWtISn-FDDQOaa-80" value="Mantenua editatu" style="ellipse;whiteSpace=wrap;html=1;" vertex="1" parent="1">
          <mxGeometry x="580" y="1370" width="120" height="80" as="geometry" />
        </mxCell>
        <mxCell id="pg4sQeBWtISn-FDDQOaa-81" value="Mantenua gehitu" style="ellipse;whiteSpace=wrap;html=1;" vertex="1" parent="1">
          <mxGeometry x="580" y="1480" width="120" height="80" as="geometry" />
        </mxCell>
        <mxCell id="pg4sQeBWtISn-FDDQOaa-82" value="Mantenua ezabatu" style="ellipse;whiteSpace=wrap;html=1;" vertex="1" parent="1">
          <mxGeometry x="580" y="1590" width="120" height="80" as="geometry" />
        </mxCell>
        <mxCell id="pg4sQeBWtISn-FDDQOaa-83" value="" style="endArrow=none;dashed=1;html=1;rounded=0;entryX=0;entryY=0.5;entryDx=0;entryDy=0;exitX=0.992;exitY=0.6;exitDx=0;exitDy=0;exitPerimeter=0;startArrow=block;startFill=1;" edge="1" parent="1" source="pg4sQeBWtISn-FDDQOaa-12" target="pg4sQeBWtISn-FDDQOaa-81">
          <mxGeometry width="50" height="50" relative="1" as="geometry">
            <mxPoint x="480" y="1540" as="sourcePoint" />
            <mxPoint x="530" y="1490" as="targetPoint" />
          </mxGeometry>
        </mxCell>
        <mxCell id="pg4sQeBWtISn-FDDQOaa-98" value="&amp;lt;&amp;lt;extend&amp;gt;&amp;gt;" style="edgeLabel;html=1;align=center;verticalAlign=middle;resizable=0;points=[];" vertex="1" connectable="0" parent="pg4sQeBWtISn-FDDQOaa-83">
          <mxGeometry x="0.1929" y="-1" relative="1" as="geometry">
            <mxPoint as="offset" />
          </mxGeometry>
        </mxCell>
        <mxCell id="pg4sQeBWtISn-FDDQOaa-84" value="" style="endArrow=none;dashed=1;html=1;rounded=0;entryX=0;entryY=0.5;entryDx=0;entryDy=0;startArrow=block;startFill=1;" edge="1" parent="1" source="pg4sQeBWtISn-FDDQOaa-12" target="pg4sQeBWtISn-FDDQOaa-82">
          <mxGeometry width="50" height="50" relative="1" as="geometry">
            <mxPoint x="470" y="1600" as="sourcePoint" />
            <mxPoint x="520" y="1550" as="targetPoint" />
          </mxGeometry>
        </mxCell>
        <mxCell id="pg4sQeBWtISn-FDDQOaa-99" value="&amp;lt;&amp;lt;extend&amp;gt;&amp;gt;" style="edgeLabel;html=1;align=center;verticalAlign=middle;resizable=0;points=[];" vertex="1" connectable="0" parent="pg4sQeBWtISn-FDDQOaa-84">
          <mxGeometry x="0.0366" y="1" relative="1" as="geometry">
            <mxPoint as="offset" />
          </mxGeometry>
        </mxCell>
        <mxCell id="pg4sQeBWtISn-FDDQOaa-85" value="Objetuak editatu" style="ellipse;whiteSpace=wrap;html=1;" vertex="1" parent="1">
          <mxGeometry x="580" y="1700" width="120" height="80" as="geometry" />
        </mxCell>
        <mxCell id="pg4sQeBWtISn-FDDQOaa-86" value="" style="endArrow=none;dashed=1;html=1;rounded=0;exitX=1.01;exitY=0.631;exitDx=0;exitDy=0;exitPerimeter=0;entryX=0;entryY=0.5;entryDx=0;entryDy=0;startArrow=block;startFill=1;" edge="1" parent="1" source="pg4sQeBWtISn-FDDQOaa-13" target="pg4sQeBWtISn-FDDQOaa-87">
          <mxGeometry width="50" height="50" relative="1" as="geometry">
            <mxPoint x="480" y="1870" as="sourcePoint" />
            <mxPoint x="570" y="1840" as="targetPoint" />
          </mxGeometry>
        </mxCell>
        <mxCell id="pg4sQeBWtISn-FDDQOaa-101" value="&amp;lt;&amp;lt;extend&amp;gt;&amp;gt;" style="edgeLabel;html=1;align=center;verticalAlign=middle;resizable=0;points=[];" vertex="1" connectable="0" parent="pg4sQeBWtISn-FDDQOaa-86">
          <mxGeometry x="0.1217" y="-1" relative="1" as="geometry">
            <mxPoint as="offset" />
          </mxGeometry>
        </mxCell>
        <mxCell id="pg4sQeBWtISn-FDDQOaa-87" value="Objetuak gehitu" style="ellipse;whiteSpace=wrap;html=1;" vertex="1" parent="1">
          <mxGeometry x="580" y="1800" width="120" height="80" as="geometry" />
        </mxCell>
        <mxCell id="pg4sQeBWtISn-FDDQOaa-88" value="Objetuak ezabatu" style="ellipse;whiteSpace=wrap;html=1;" vertex="1" parent="1">
          <mxGeometry x="580" y="1910" width="120" height="80" as="geometry" />
        </mxCell>
        <mxCell id="pg4sQeBWtISn-FDDQOaa-89" value="" style="endArrow=none;dashed=1;html=1;rounded=0;entryX=0.01;entryY=0.423;entryDx=0;entryDy=0;entryPerimeter=0;exitX=1;exitY=1;exitDx=0;exitDy=0;startArrow=block;startFill=1;" edge="1" parent="1" source="pg4sQeBWtISn-FDDQOaa-13" target="pg4sQeBWtISn-FDDQOaa-88">
          <mxGeometry width="50" height="50" relative="1" as="geometry">
            <mxPoint x="410" y="1910" as="sourcePoint" />
            <mxPoint x="590" y="1880" as="targetPoint" />
          </mxGeometry>
        </mxCell>
        <mxCell id="pg4sQeBWtISn-FDDQOaa-102" value="&amp;lt;&amp;lt;extend&amp;gt;&amp;gt;" style="edgeLabel;html=1;align=center;verticalAlign=middle;resizable=0;points=[];" vertex="1" connectable="0" parent="pg4sQeBWtISn-FDDQOaa-89">
          <mxGeometry x="0.1356" y="-2" relative="1" as="geometry">
            <mxPoint as="offset" />
          </mxGeometry>
        </mxCell>
        <mxCell id="pg4sQeBWtISn-FDDQOaa-90" value="Sarrera sortu" style="ellipse;whiteSpace=wrap;html=1;" vertex="1" parent="1">
          <mxGeometry x="580" y="2080" width="120" height="80" as="geometry" />
        </mxCell>
        <mxCell id="pg4sQeBWtISn-FDDQOaa-104" value="" style="endArrow=none;dashed=1;html=1;rounded=0;exitX=1;exitY=0.5;exitDx=0;exitDy=0;entryX=0;entryY=0.5;entryDx=0;entryDy=0;startArrow=block;startFill=1;" edge="1" parent="1" source="pg4sQeBWtISn-FDDQOaa-90" target="pg4sQeBWtISn-FDDQOaa-105">
          <mxGeometry width="50" height="50" relative="1" as="geometry">
            <mxPoint x="760" y="2120" as="sourcePoint" />
            <mxPoint x="800" y="2120" as="targetPoint" />
          </mxGeometry>
        </mxCell>
        <mxCell id="pg4sQeBWtISn-FDDQOaa-107" value="&amp;lt;&amp;lt;extend&amp;gt;&amp;gt;" style="edgeLabel;html=1;align=center;verticalAlign=middle;resizable=0;points=[];" vertex="1" connectable="0" parent="pg4sQeBWtISn-FDDQOaa-104">
          <mxGeometry x="0.0074" y="2" relative="1" as="geometry">
            <mxPoint as="offset" />
          </mxGeometry>
        </mxCell>
        <mxCell id="pg4sQeBWtISn-FDDQOaa-105" value="Sarreren faktura sortu" style="ellipse;whiteSpace=wrap;html=1;" vertex="1" parent="1">
          <mxGeometry x="790" y="2080" width="120" height="80" as="geometry" />
        </mxCell>
        <mxCell id="pg4sQeBWtISn-FDDQOaa-108" value="" style="endArrow=none;dashed=1;html=1;rounded=0;exitX=0.5;exitY=0;exitDx=0;exitDy=0;" edge="1" parent="1" source="pg4sQeBWtISn-FDDQOaa-6">
          <mxGeometry width="50" height="50" relative="1" as="geometry">
            <mxPoint x="360" y="-310" as="sourcePoint" />
            <mxPoint x="400" y="-560" as="targetPoint" />
          </mxGeometry>
        </mxCell>
        <mxCell id="pg4sQeBWtISn-FDDQOaa-109" value="" style="endArrow=none;dashed=1;html=1;rounded=0;" edge="1" parent="1">
          <mxGeometry width="50" height="50" relative="1" as="geometry">
            <mxPoint x="400" y="-560" as="sourcePoint" />
            <mxPoint x="1050" y="-560" as="targetPoint" />
          </mxGeometry>
        </mxCell>
        <mxCell id="pg4sQeBWtISn-FDDQOaa-115" value="&amp;lt;&amp;lt;include&amp;gt;&amp;gt;" style="edgeLabel;html=1;align=center;verticalAlign=middle;resizable=0;points=[];" vertex="1" connectable="0" parent="pg4sQeBWtISn-FDDQOaa-109">
          <mxGeometry x="0.001" y="1" relative="1" as="geometry">
            <mxPoint as="offset" />
          </mxGeometry>
        </mxCell>
        <mxCell id="pg4sQeBWtISn-FDDQOaa-110" value="" style="endArrow=none;dashed=1;html=1;rounded=0;exitX=0.5;exitY=0;exitDx=0;exitDy=0;endFill=1;startFill=1;startArrow=block;" edge="1" parent="1" source="pg4sQeBWtISn-FDDQOaa-114">
          <mxGeometry width="50" height="50" relative="1" as="geometry">
            <mxPoint x="1050" y="-40" as="sourcePoint" />
            <mxPoint x="1050" y="-560" as="targetPoint" />
          </mxGeometry>
        </mxCell>
        <mxCell id="pg4sQeBWtISn-FDDQOaa-111" value="" style="endArrow=none;dashed=1;html=1;rounded=0;entryX=0.5;entryY=1;entryDx=0;entryDy=0;" edge="1" parent="1" target="pg4sQeBWtISn-FDDQOaa-14">
          <mxGeometry width="50" height="50" relative="1" as="geometry">
            <mxPoint x="380" y="2300" as="sourcePoint" />
            <mxPoint x="390" y="2170" as="targetPoint" />
          </mxGeometry>
        </mxCell>
        <mxCell id="pg4sQeBWtISn-FDDQOaa-112" value="" style="endArrow=none;dashed=1;html=1;rounded=0;" edge="1" parent="1">
          <mxGeometry width="50" height="50" relative="1" as="geometry">
            <mxPoint x="380" y="2300" as="sourcePoint" />
            <mxPoint x="1050" y="2300" as="targetPoint" />
          </mxGeometry>
        </mxCell>
        <mxCell id="pg4sQeBWtISn-FDDQOaa-116" value="&amp;lt;&amp;lt;include&amp;gt;&amp;gt;" style="edgeLabel;html=1;align=center;verticalAlign=middle;resizable=0;points=[];" vertex="1" connectable="0" parent="pg4sQeBWtISn-FDDQOaa-112">
          <mxGeometry x="0.0483" y="-2" relative="1" as="geometry">
            <mxPoint as="offset" />
          </mxGeometry>
        </mxCell>
        <mxCell id="pg4sQeBWtISn-FDDQOaa-113" value="" style="endArrow=block;dashed=1;html=1;rounded=0;entryX=0.5;entryY=1;entryDx=0;entryDy=0;endFill=1;" edge="1" parent="1" target="pg4sQeBWtISn-FDDQOaa-114">
          <mxGeometry width="50" height="50" relative="1" as="geometry">
            <mxPoint x="1050" y="2300" as="sourcePoint" />
            <mxPoint x="1050" y="160" as="targetPoint" />
          </mxGeometry>
        </mxCell>
        <mxCell id="pg4sQeBWtISn-FDDQOaa-114" value="Saioa hasi" style="ellipse;whiteSpace=wrap;html=1;" vertex="1" parent="1">
          <mxGeometry x="990" y="20" width="120" height="80" as="geometry" />
        </mxCell>
        <mxCell id="pg4sQeBWtISn-FDDQOaa-117" value="" style="endArrow=none;dashed=1;html=1;rounded=0;entryX=0.5;entryY=1;entryDx=0;entryDy=0;" edge="1" parent="1" target="pg4sQeBWtISn-FDDQOaa-13">
          <mxGeometry width="50" height="50" relative="1" as="geometry">
            <mxPoint x="380" y="2060" as="sourcePoint" />
            <mxPoint x="370" y="1910" as="targetPoint" />
          </mxGeometry>
        </mxCell>
        <mxCell id="pg4sQeBWtISn-FDDQOaa-118" value="" style="endArrow=none;dashed=1;html=1;rounded=0;" edge="1" parent="1">
          <mxGeometry width="50" height="50" relative="1" as="geometry">
            <mxPoint x="380" y="2060" as="sourcePoint" />
            <mxPoint x="1050" y="2060" as="targetPoint" />
          </mxGeometry>
        </mxCell>
        <mxCell id="pg4sQeBWtISn-FDDQOaa-119" value="&amp;lt;&amp;lt;include&amp;gt;" style="edgeLabel;html=1;align=center;verticalAlign=middle;resizable=0;points=[];" vertex="1" connectable="0" parent="pg4sQeBWtISn-FDDQOaa-118">
          <mxGeometry x="-0.0015" relative="1" as="geometry">
            <mxPoint as="offset" />
          </mxGeometry>
        </mxCell>
        <mxCell id="pg4sQeBWtISn-FDDQOaa-120" value="" style="endArrow=none;dashed=1;html=1;rounded=0;exitX=0.5;exitY=0;exitDx=0;exitDy=0;" edge="1" parent="1" source="pg4sQeBWtISn-FDDQOaa-12">
          <mxGeometry width="50" height="50" relative="1" as="geometry">
            <mxPoint x="360" y="1440" as="sourcePoint" />
            <mxPoint x="380" y="1340" as="targetPoint" />
          </mxGeometry>
        </mxCell>
        <mxCell id="pg4sQeBWtISn-FDDQOaa-121" value="" style="endArrow=none;dashed=1;html=1;rounded=0;" edge="1" parent="1">
          <mxGeometry width="50" height="50" relative="1" as="geometry">
            <mxPoint x="380" y="1340" as="sourcePoint" />
            <mxPoint x="1050" y="1340" as="targetPoint" />
          </mxGeometry>
        </mxCell>
        <mxCell id="pg4sQeBWtISn-FDDQOaa-122" value="&amp;lt;&amp;lt;include&amp;gt;&amp;gt;" style="edgeLabel;html=1;align=center;verticalAlign=middle;resizable=0;points=[];" vertex="1" connectable="0" parent="pg4sQeBWtISn-FDDQOaa-121">
          <mxGeometry x="0.0259" y="2" relative="1" as="geometry">
            <mxPoint as="offset" />
          </mxGeometry>
        </mxCell>
        <mxCell id="pg4sQeBWtISn-FDDQOaa-123" value="" style="endArrow=none;dashed=1;html=1;rounded=0;exitX=0.5;exitY=0;exitDx=0;exitDy=0;" edge="1" parent="1" source="pg4sQeBWtISn-FDDQOaa-11">
          <mxGeometry width="50" height="50" relative="1" as="geometry">
            <mxPoint x="390" y="1100" as="sourcePoint" />
            <mxPoint x="390" y="960" as="targetPoint" />
          </mxGeometry>
        </mxCell>
        <mxCell id="pg4sQeBWtISn-FDDQOaa-124" value="" style="endArrow=none;dashed=1;html=1;rounded=0;" edge="1" parent="1">
          <mxGeometry width="50" height="50" relative="1" as="geometry">
            <mxPoint x="390" y="960" as="sourcePoint" />
            <mxPoint x="1050" y="960" as="targetPoint" />
          </mxGeometry>
        </mxCell>
        <mxCell id="pg4sQeBWtISn-FDDQOaa-125" value="&amp;lt;&amp;lt;include&amp;gt;&amp;gt;" style="edgeLabel;html=1;align=center;verticalAlign=middle;resizable=0;points=[];" vertex="1" connectable="0" parent="pg4sQeBWtISn-FDDQOaa-124">
          <mxGeometry x="0.001" y="2" relative="1" as="geometry">
            <mxPoint as="offset" />
          </mxGeometry>
        </mxCell>
        <mxCell id="pg4sQeBWtISn-FDDQOaa-126" value="" style="endArrow=none;dashed=1;html=1;rounded=0;entryX=0.558;entryY=1.017;entryDx=0;entryDy=0;entryPerimeter=0;" edge="1" parent="1">
          <mxGeometry width="50" height="50" relative="1" as="geometry">
            <mxPoint x="390" y="960" as="sourcePoint" />
            <mxPoint x="389.58000000000004" y="800.0000000000001" as="targetPoint" />
          </mxGeometry>
        </mxCell>
        <mxCell id="pg4sQeBWtISn-FDDQOaa-127" value="" style="endArrow=none;dashed=1;html=1;rounded=0;entryX=0.5;entryY=1;entryDx=0;entryDy=0;" edge="1" parent="1" target="pg4sQeBWtISn-FDDQOaa-9">
          <mxGeometry width="50" height="50" relative="1" as="geometry">
            <mxPoint x="390" y="580" as="sourcePoint" />
            <mxPoint x="400" y="400" as="targetPoint" />
          </mxGeometry>
        </mxCell>
        <mxCell id="pg4sQeBWtISn-FDDQOaa-128" value="" style="endArrow=none;dashed=1;html=1;rounded=0;" edge="1" parent="1">
          <mxGeometry width="50" height="50" relative="1" as="geometry">
            <mxPoint x="390" y="580" as="sourcePoint" />
            <mxPoint x="1050" y="580" as="targetPoint" />
          </mxGeometry>
        </mxCell>
        <mxCell id="pg4sQeBWtISn-FDDQOaa-129" value="&amp;lt;&amp;lt;include&amp;gt;&amp;gt;" style="edgeLabel;html=1;align=center;verticalAlign=middle;resizable=0;points=[];" vertex="1" connectable="0" parent="pg4sQeBWtISn-FDDQOaa-128">
          <mxGeometry x="-0.0015" relative="1" as="geometry">
            <mxPoint as="offset" />
          </mxGeometry>
        </mxCell>
        <mxCell id="pg4sQeBWtISn-FDDQOaa-130" value="" style="endArrow=none;dashed=1;html=1;rounded=0;entryX=0.5;entryY=1;entryDx=0;entryDy=0;" edge="1" parent="1" target="pg4sQeBWtISn-FDDQOaa-8">
          <mxGeometry width="50" height="50" relative="1" as="geometry">
            <mxPoint x="400" y="220" as="sourcePoint" />
            <mxPoint x="400" y="100" as="targetPoint" />
          </mxGeometry>
        </mxCell>
        <mxCell id="pg4sQeBWtISn-FDDQOaa-131" value="" style="endArrow=none;dashed=1;html=1;rounded=0;" edge="1" parent="1">
          <mxGeometry width="50" height="50" relative="1" as="geometry">
            <mxPoint x="400" y="220" as="sourcePoint" />
            <mxPoint x="1050" y="220" as="targetPoint" />
          </mxGeometry>
        </mxCell>
        <mxCell id="pg4sQeBWtISn-FDDQOaa-132" value="&amp;lt;&amp;lt;include&amp;gt;&amp;gt;" style="edgeLabel;html=1;align=center;verticalAlign=middle;resizable=0;points=[];" vertex="1" connectable="0" parent="pg4sQeBWtISn-FDDQOaa-131">
          <mxGeometry x="0.1574" relative="1" as="geometry">
            <mxPoint as="offset" />
          </mxGeometry>
        </mxCell>
      </root>
    </mxGraphModel>
  </diagram>
</mxfile>
